<svg width="43" height="43" viewBox="0 0 43 43" fill="none" xmlns="http://www.w3.org/2000/svg">
<g clip-path="url(#clip0_42_79)">
<path d="M35.78 0H6.38C2.85642 0 0 2.85642 0 6.38V35.78C0 39.3036 2.85642 42.16 6.38 42.16H35.78C39.3036 42.16 42.16 39.3036 42.16 35.78V6.38C42.16 2.85642 39.3036 0 35.78 0Z" fill="#0076C0"/>
<path d="M24.37 29.29C24.1013 29.2888 23.8395 29.205 23.62 29.05L21.08 27.2L18.53 29.05C18.3123 29.2078 18.0501 29.2923 17.7812 29.2916C17.5123 29.2908 17.2506 29.2047 17.0338 29.0457C16.817 28.8867 16.6562 28.663 16.5747 28.4068C16.4931 28.1506 16.495 27.8751 16.58 27.6201L17.58 24.6201L15.03 22.78C14.8138 22.6205 14.6533 22.397 14.5711 22.1412C14.489 21.8854 14.4895 21.6102 14.5725 21.3547C14.6554 21.0991 14.8167 20.8763 15.0334 20.7175C15.2502 20.5587 15.5113 20.4721 15.78 20.47H18.93L19.93 17.47C20.0118 17.2134 20.1732 16.9893 20.3907 16.8304C20.6082 16.6714 20.8706 16.5858 21.14 16.5858C21.4094 16.5858 21.6718 16.6714 21.8893 16.8304C22.1069 16.9893 22.2682 17.2134 22.35 17.47L23.35 20.47H26.49C26.7587 20.4721 27.0198 20.5587 27.2366 20.7175C27.4533 20.8763 27.6146 21.0991 27.6976 21.3547C27.7805 21.6102 27.781 21.8854 27.6989 22.1412C27.6167 22.397 27.4562 22.6205 27.24 22.78L24.7 24.6201L25.7 27.6201C25.7838 27.8765 25.7844 28.1528 25.7018 28.4096C25.6192 28.6664 25.4576 28.8905 25.24 29.05C24.9876 29.2305 24.6793 29.3156 24.37 29.29ZM21.08 25.64C21.3497 25.6447 21.6114 25.732 21.83 25.89L23.94 27.42L23.13 24.94C23.047 24.6851 23.0467 24.4104 23.1294 24.1553C23.212 23.9003 23.3732 23.6778 23.59 23.52L25.7 21.98H23.09C22.8227 21.9795 22.5623 21.8953 22.3453 21.7393C22.1283 21.5833 21.9656 21.3632 21.88 21.11L21.08 18.6201L20.27 21.11C20.1857 21.3641 20.0233 21.5849 19.806 21.7411C19.5887 21.8974 19.3276 21.981 19.06 21.98H16.45L18.56 23.52C18.7797 23.6754 18.9439 23.8972 19.0285 24.1528C19.1131 24.4083 19.1136 24.6842 19.03 24.94L18.22 27.42L20.33 25.89C20.548 25.7308 20.8101 25.6434 21.08 25.64Z" fill="white"/>
<path d="M13.4 30.8701C13.1802 30.8722 12.9658 30.8019 12.79 30.67L11.49 29.73L10.2 30.67C10.0191 30.7962 9.80327 30.8629 9.58267 30.8607C9.36208 30.8584 9.14768 30.7874 8.96936 30.6575C8.79104 30.5276 8.65769 30.3453 8.58789 30.136C8.5181 29.9268 8.51533 29.701 8.57999 29.4901L9.07999 27.98L7.78 27.04C7.60225 26.9076 7.47047 26.7228 7.4032 26.5117C7.33594 26.3005 7.33657 26.0734 7.405 25.8626C7.47343 25.6518 7.60622 25.4678 7.7847 25.3364C7.96318 25.2049 8.17837 25.1328 8.4 25.1301H10.03L10.52 23.6201C10.5878 23.4081 10.7212 23.2232 10.901 23.092C11.0807 22.9608 11.2975 22.89 11.52 22.89C11.7422 22.8915 11.9582 22.9628 12.1377 23.0938C12.3171 23.2248 12.4508 23.4089 12.52 23.6201L13.01 25.1301H14.6C14.8214 25.1345 15.0361 25.2069 15.215 25.3375C15.3939 25.468 15.5283 25.6505 15.6 25.86C15.6675 26.0727 15.6661 26.3012 15.5961 26.5131C15.526 26.725 15.3909 26.9094 15.21 27.04L13.92 27.98L14.42 29.4901C14.4946 29.7068 14.4968 29.9418 14.4265 30.16C14.3562 30.3781 14.2171 30.5676 14.03 30.7C13.8449 30.8255 13.6231 30.8854 13.4 30.8701ZM9.78 26.6301L10.22 26.95C10.3992 27.0819 10.5323 27.2669 10.6005 27.4787C10.6687 27.6905 10.6685 27.9184 10.6 28.1301L10.43 28.65L10.88 28.33C11.0557 28.193 11.2722 28.1186 11.495 28.1186C11.7178 28.1186 11.9343 28.193 12.11 28.33L12.55 28.65L12.39 28.1301C12.3114 27.9193 12.3061 27.6882 12.3751 27.4741C12.444 27.2599 12.5832 27.0753 12.77 26.95L13.21 26.6301H12.66C12.4391 26.6292 12.2239 26.5593 12.0446 26.4302C11.8653 26.3011 11.7309 26.1192 11.66 25.91L11.49 25.39L11.33 25.91C11.2578 26.1184 11.1231 26.2995 10.9441 26.4284C10.7651 26.5573 10.5506 26.6278 10.33 26.6301H9.78Z" fill="white"/>
<path d="M32.57 30.8701C32.3468 30.8745 32.1286 30.804 31.95 30.67L30.66 29.73L29.37 30.67C29.1903 30.8032 28.9728 30.8756 28.7491 30.8765C28.5254 30.8775 28.3073 30.8071 28.1264 30.6754C27.9456 30.5436 27.8116 30.3576 27.7439 30.1443C27.6762 29.9311 27.6783 29.7019 27.75 29.4901L28.24 27.98L26.95 27.04C26.7723 26.9076 26.6405 26.7228 26.5732 26.5117C26.506 26.3005 26.5066 26.0734 26.575 25.8626C26.6435 25.6518 26.7763 25.4678 26.9547 25.3364C27.1332 25.2049 27.3484 25.1328 27.57 25.1301H29.17L29.66 23.6201C29.66 23.3548 29.7654 23.1004 29.9529 22.9129C30.1405 22.7254 30.3948 22.6201 30.66 22.6201C30.9253 22.6201 31.1796 22.7254 31.3671 22.9129C31.5547 23.1004 31.66 23.3548 31.66 23.6201L32.16 25.1301H33.75C33.9726 25.1301 34.1893 25.2008 34.3691 25.332C34.5488 25.4632 34.6822 25.6481 34.75 25.86C34.8286 26.0708 34.8339 26.3019 34.7649 26.5161C34.696 26.7302 34.5569 26.9147 34.37 27.04L33.08 27.98L33.57 29.4901C33.6486 29.7008 33.6539 29.9319 33.5849 30.1461C33.516 30.3602 33.3769 30.5447 33.19 30.67C33.0115 30.804 32.7932 30.8745 32.57 30.8701ZM28.95 26.6301L29.39 26.95C29.5692 27.0819 29.7023 27.2669 29.7705 27.4787C29.8387 27.6905 29.8385 27.9184 29.77 28.1301L29.6 28.65L30.04 28.33C30.22 28.1984 30.4371 28.1274 30.66 28.1274C30.883 28.1274 31.1001 28.1984 31.28 28.33L31.72 28.65L31.55 28.1301C31.4825 27.9174 31.4839 27.6887 31.554 27.4769C31.624 27.265 31.7591 27.0806 31.94 26.95L32.38 26.6301H31.83C31.6069 26.6389 31.3872 26.5728 31.206 26.4423C31.0247 26.3118 30.8924 26.1244 30.83 25.91L30.66 25.39L30.49 25.91C30.4277 26.1244 30.2953 26.3118 30.1141 26.4423C29.9329 26.5728 29.7132 26.6389 29.49 26.6301H28.95Z" fill="white"/>
<path d="M21.08 16.04C20.8811 16.04 20.6904 15.961 20.5497 15.8204C20.4091 15.6797 20.33 15.4889 20.33 15.29V12.04C20.33 11.8411 20.4091 11.6504 20.5497 11.5097C20.6904 11.3691 20.8811 11.29 21.08 11.29C21.2789 11.29 21.4697 11.3691 21.6104 11.5097C21.751 11.6504 21.83 11.8411 21.83 12.04V15.29C21.8274 15.4881 21.7476 15.6773 21.6075 15.8174C21.4674 15.9575 21.2781 16.0374 21.08 16.04Z" fill="white"/>
<path d="M24.75 16.95C24.6232 16.9499 24.4987 16.9154 24.39 16.8501C24.2216 16.7534 24.0973 16.595 24.0432 16.4085C23.9891 16.222 24.0095 16.0219 24.1 15.8501L25.7001 12.9701C25.7423 12.8753 25.8037 12.7903 25.8805 12.7206C25.9573 12.6508 26.0476 12.5977 26.146 12.5647C26.2443 12.5316 26.3484 12.5192 26.4517 12.5284C26.5551 12.5376 26.6553 12.5683 26.7463 12.6183C26.8372 12.6682 26.9167 12.7364 26.9799 12.8187C27.0431 12.901 27.0885 12.9956 27.1133 13.0963C27.1381 13.197 27.1417 13.3018 27.1239 13.404C27.1062 13.5062 27.0674 13.6036 27.01 13.69L25.41 16.58C25.3427 16.6947 25.2461 16.7893 25.1301 16.8543C25.0141 16.9194 24.883 16.9524 24.75 16.95Z" fill="white"/>
<path d="M17.4 16.9501C17.2663 16.9508 17.135 16.9148 17.0204 16.8461C16.9058 16.7773 16.8123 16.6783 16.75 16.56L15.15 13.67C15.0927 13.5836 15.0539 13.4862 15.0361 13.384C15.0183 13.2818 15.022 13.177 15.0468 13.0763C15.0715 12.9755 15.1169 12.8811 15.1801 12.7988C15.2433 12.7165 15.3229 12.6482 15.4138 12.5983C15.5047 12.5483 15.605 12.5178 15.7083 12.5085C15.8116 12.4993 15.9157 12.5116 16.0141 12.5447C16.1124 12.5777 16.2028 12.6308 16.2795 12.7005C16.3563 12.7703 16.4177 12.8553 16.46 12.9501L18.06 15.8301C18.1505 16.0019 18.1709 16.202 18.1168 16.3885C18.0627 16.575 17.9384 16.7333 17.77 16.8301C17.6602 16.9037 17.5321 16.9453 17.4 16.9501Z" fill="white"/>
</g>
<defs>
<clipPath id="clip0_42_79">
<rect width="42.16" height="42.16" fill="white"/>
</clipPath>
</defs>
</svg>
