<svg width="43" height="43" viewBox="0 0 43 43" fill="none" xmlns="http://www.w3.org/2000/svg">
<g clip-path="url(#clip0_42_55)">
<path d="M35.78 0H6.38C2.85642 0 0 2.85642 0 6.38V35.78C0 39.3036 2.85642 42.16 6.38 42.16H35.78C39.3036 42.16 42.16 39.3036 42.16 35.78V6.38C42.16 2.85642 39.3036 0 35.78 0Z" fill="#0076C0"/>
<path d="M23.44 35.1201H18.72C18.5211 35.1201 18.3303 35.041 18.1897 34.9003C18.049 34.7597 17.97 34.569 17.97 34.3701C17.97 34.1711 18.049 33.9803 18.1897 33.8397C18.3303 33.699 18.5211 33.6201 18.72 33.6201H23.44C23.514 33.6349 23.5904 33.6332 23.6637 33.6149C23.737 33.5967 23.8053 33.5624 23.8637 33.5146C23.9221 33.4668 23.9691 33.4066 24.0014 33.3383C24.0338 33.2701 24.0505 33.1956 24.0505 33.1201C24.0505 33.0446 24.0338 32.9699 24.0014 32.9017C23.9691 32.8334 23.9221 32.7732 23.8637 32.7254C23.8053 32.6776 23.737 32.6433 23.6637 32.6251C23.5904 32.6068 23.514 32.6052 23.44 32.6201H18.72C18.5211 32.6201 18.3303 32.541 18.1897 32.4003C18.049 32.2597 17.97 32.069 17.97 31.8701C17.97 31.6711 18.049 31.4803 18.1897 31.3397C18.3303 31.199 18.5211 31.1201 18.72 31.1201H23.44C23.9705 31.1201 24.4792 31.3307 24.8542 31.7057C25.2293 32.0808 25.44 32.5896 25.44 33.1201C25.44 33.6505 25.2293 34.1592 24.8542 34.5342C24.4792 34.9093 23.9705 35.1201 23.44 35.1201Z" fill="white"/>
<path d="M23.44 32.6H18.72C18.1896 32.6 17.6809 32.3893 17.3058 32.0142C16.9307 31.6391 16.72 31.1305 16.72 30.6C16.72 30.0696 16.9307 29.5609 17.3058 29.1859C17.6809 28.8108 18.1896 28.6 18.72 28.6H23.44C23.6389 28.6 23.8297 28.679 23.9704 28.8196C24.111 28.9603 24.19 29.1511 24.19 29.35C24.19 29.5489 24.111 29.7397 23.9704 29.8803C23.8297 30.021 23.6389 30.1 23.44 30.1H18.72C18.6045 30.1233 18.5006 30.1858 18.426 30.2769C18.3513 30.3681 18.3105 30.4822 18.3105 30.6C18.3105 30.7179 18.3513 30.832 18.426 30.9232C18.5006 31.0143 18.6045 31.0768 18.72 31.1H23.44C23.6389 31.1 23.8297 31.179 23.9704 31.3196C24.111 31.4603 24.19 31.6511 24.19 31.85C24.19 32.0489 24.111 32.2397 23.9704 32.3803C23.8297 32.521 23.6389 32.6 23.44 32.6Z" fill="white"/>
<path d="M24.53 25.53C24.3666 25.5298 24.2077 25.4762 24.0776 25.3774C23.9474 25.2786 23.8531 25.14 23.8089 24.9826C23.7648 24.8253 23.7732 24.6578 23.833 24.5057C23.8928 24.3536 24.0006 24.2253 24.14 24.1401C25.0542 23.6123 25.8129 22.8525 26.3395 21.9377C26.8662 21.0229 27.1422 19.9853 27.1397 18.9298C27.1372 17.8742 26.8563 16.838 26.3253 15.9257C25.7943 15.0134 25.032 14.2573 24.1153 13.7338C23.1987 13.2103 22.1602 12.938 21.1046 12.9442C20.0491 12.9503 19.0138 13.2348 18.1034 13.769C17.1929 14.3032 16.4396 15.0682 15.9193 15.9866C15.399 16.9051 15.1302 17.9445 15.14 19.0001C15.1494 19.9981 15.4077 20.978 15.8913 21.851C16.375 22.7241 17.0689 23.4628 17.91 24.0001C18.0784 24.1075 18.1973 24.2773 18.2404 24.4724C18.2835 24.6674 18.2474 24.8716 18.14 25.04C18.0326 25.2084 17.8627 25.3273 17.6677 25.3704C17.4726 25.4136 17.2684 25.3774 17.1 25.27C16.0045 24.5718 15.1097 23.6004 14.5037 22.4514C13.8978 21.3023 13.6015 20.0153 13.644 18.717C13.6866 17.4186 14.0666 16.1537 14.7465 15.0468C15.4265 13.9399 16.383 13.0293 17.5218 12.4044C18.6607 11.7795 19.9427 11.462 21.2416 11.4831C22.5404 11.5042 23.8114 11.8632 24.9294 12.5247C26.0473 13.1863 26.9737 14.1277 27.6174 15.2561C28.261 16.3844 28.5997 17.661 28.6 18.96C28.595 20.255 28.2566 21.5269 27.6173 22.6531C26.978 23.7794 26.0594 24.722 24.95 25.3901C24.8273 25.478 24.6809 25.5266 24.53 25.53Z" fill="white"/>
<path d="M21.08 10.83C20.8811 10.83 20.6903 10.7509 20.5497 10.6103C20.409 10.4696 20.33 10.2789 20.33 10.08V7.79999C20.33 7.60108 20.409 7.41037 20.5497 7.26971C20.6903 7.12906 20.8811 7.04999 21.08 7.04999C21.2789 7.04999 21.4697 7.12906 21.6103 7.26971C21.751 7.41037 21.83 7.60108 21.83 7.79999V10.08C21.8314 10.1789 21.8129 10.277 21.7757 10.3686C21.7385 10.4602 21.6833 10.5434 21.6133 10.6133C21.5434 10.6833 21.4602 10.7385 21.3686 10.7757C21.277 10.8129 21.1789 10.8314 21.08 10.83Z" fill="white"/>
<path d="M27.05 13.33C26.852 13.3257 26.6628 13.2472 26.52 13.11C26.3796 12.9694 26.3007 12.7788 26.3007 12.58C26.3007 12.3813 26.3796 12.1906 26.52 12.05L28.14 10.43C28.2822 10.2975 28.4702 10.2254 28.6645 10.2288C28.8588 10.2322 29.0442 10.311 29.1816 10.4484C29.319 10.5858 29.3977 10.7712 29.4012 10.9655C29.4046 11.1598 29.3325 11.3479 29.2 11.49L27.58 13.11C27.4383 13.2489 27.2484 13.3277 27.05 13.33Z" fill="white"/>
<path d="M31.81 19.33H29.52C29.3211 19.33 29.1303 19.2509 28.9897 19.1103C28.849 18.9696 28.77 18.7789 28.77 18.58C28.77 18.3811 28.849 18.1904 28.9897 18.0497C29.1303 17.9091 29.3211 17.83 29.52 17.83H31.81C32.0089 17.83 32.1997 17.9091 32.3403 18.0497C32.481 18.1904 32.56 18.3811 32.56 18.58C32.56 18.7789 32.481 18.9696 32.3403 19.1103C32.1997 19.2509 32.0089 19.33 31.81 19.33Z" fill="white"/>
<path d="M12.64 19.33H10.36C10.1611 19.33 9.9703 19.2509 9.82965 19.1103C9.689 18.9696 9.60999 18.7789 9.60999 18.58C9.60999 18.3811 9.689 18.1904 9.82965 18.0497C9.9703 17.9091 10.1611 17.83 10.36 17.83H12.64C12.8389 17.83 13.0297 17.9091 13.1703 18.0497C13.311 18.1904 13.39 18.3811 13.39 18.58C13.39 18.7789 13.311 18.9696 13.1703 19.1103C13.0297 19.2509 12.8389 19.33 12.64 19.33Z" fill="white"/>
<path d="M15.11 13.33C14.912 13.3257 14.7229 13.2472 14.58 13.11L12.97 11.4901C12.8993 11.4211 12.843 11.3386 12.8046 11.2476C12.7662 11.1566 12.7465 11.0588 12.7465 10.96C12.7465 10.8612 12.7662 10.7635 12.8046 10.6724C12.843 10.5814 12.8993 10.4989 12.97 10.43C13.1107 10.2895 13.3013 10.2106 13.5 10.2106C13.6988 10.2106 13.8894 10.2895 14.03 10.43L15.64 12.05C15.7805 12.1906 15.8594 12.3813 15.8594 12.58C15.8594 12.7788 15.7805 12.9694 15.64 13.11C15.4972 13.2472 15.308 13.3257 15.11 13.33Z" fill="white"/>
<path d="M23.44 30.08H18.72C18.5211 30.08 18.3303 30.0009 18.1897 29.8603C18.049 29.7196 17.97 29.5289 17.97 29.33C17.97 29.1311 18.049 28.9404 18.1897 28.7997C18.3303 28.6591 18.5211 28.58 18.72 28.58H23.44C23.514 28.5949 23.5904 28.5931 23.6637 28.5749C23.737 28.5567 23.8053 28.5224 23.8637 28.4745C23.9221 28.4267 23.9691 28.3665 24.0014 28.2983C24.0338 28.23 24.0505 28.1555 24.0505 28.08C24.0505 28.0045 24.0338 27.93 24.0014 27.8618C23.9691 27.7935 23.9221 27.7333 23.8637 27.6855C23.8053 27.6376 23.737 27.6034 23.6637 27.5851C23.5904 27.5669 23.514 27.5651 23.44 27.58H18.34C17.9077 27.58 17.4931 27.4083 17.1874 27.1026C16.8818 26.7969 16.71 26.3823 16.71 25.95V24.8C16.71 24.6011 16.7891 24.4104 16.9297 24.2697C17.0704 24.1291 17.2611 24.05 17.46 24.05C17.6589 24.05 17.8497 24.1291 17.9904 24.2697C18.131 24.4104 18.21 24.6011 18.21 24.8V25.95C18.21 25.9845 18.2237 26.0176 18.2481 26.0419C18.2725 26.0663 18.3055 26.08 18.34 26.08H23.44C23.9705 26.08 24.4792 26.2908 24.8542 26.6658C25.2293 27.0409 25.44 27.5496 25.44 28.08C25.44 28.6105 25.2293 29.1191 24.8542 29.4942C24.4792 29.8693 23.9705 30.08 23.44 30.08Z" fill="white"/>
</g>
<defs>
<clipPath id="clip0_42_55">
<rect width="42.16" height="42.16" fill="white"/>
</clipPath>
</defs>
</svg>
