<svg width="43" height="43" viewBox="0 0 43 43" fill="none" xmlns="http://www.w3.org/2000/svg">
<g clip-path="url(#clip0_42_75)">
<path d="M35.78 0H6.38C2.85642 0 0 2.85642 0 6.38V35.78C0 39.3036 2.85642 42.16 6.38 42.16H35.78C39.3036 42.16 42.16 39.3036 42.16 35.78V6.38C42.16 2.85642 39.3036 0 35.78 0Z" fill="#0076C0"/>
<path d="M5.12999 24.83L5.86 22.83C6.76667 20.2566 7.68333 17.6867 8.61 15.12C8.79 14.61 9.09 14.49 9.61 14.71L12.61 16.07C12.8146 16.1261 12.99 16.2585 13.1 16.44C13.1185 16.4617 13.1415 16.4791 13.1674 16.4912C13.1933 16.5033 13.2214 16.5097 13.25 16.51L17.34 16.83L17.94 16.8999C18.0888 16.917 18.2386 16.8777 18.36 16.7899C18.96 16.3899 19.56 15.9999 20.18 15.6399C20.4128 15.5263 20.6629 15.452 20.92 15.4199C21.7024 15.2535 22.5081 15.2264 23.3 15.34C23.9694 15.4917 24.6106 15.7482 25.2 16.1C25.48 16.24 25.73 16.42 26 16.58C26.0942 16.6342 26.2013 16.6618 26.31 16.6599L28.56 16.48C28.6561 16.4663 28.7482 16.4322 28.83 16.38C29.68 15.85 30.51 15.3099 31.35 14.7699C31.84 14.4599 32.13 14.5499 32.35 15.0599L36.74 23.72C36.74 23.81 36.83 23.9 36.87 23.99C36.9316 24.0667 36.973 24.1575 36.9905 24.2543C37.008 24.3511 37.0011 24.4508 36.9703 24.5442C36.9395 24.6376 36.8858 24.7218 36.8141 24.7892C36.7425 24.8566 36.6551 24.9049 36.56 24.9299L33.85 26.2L33.22 26.49C33.1539 26.5294 33.0805 26.5552 33.0043 26.5659C32.9281 26.5767 32.8504 26.5722 32.776 26.5526C32.7015 26.5331 32.6317 26.4988 32.5706 26.452C32.5095 26.4052 32.4583 26.3467 32.42 26.2799C32.33 26.1699 32.25 26.0599 32.16 25.9299L31.87 26.13C31.49 26.41 31.12 26.69 30.74 26.95C30.7106 26.9624 30.6844 26.9811 30.6629 27.0048C30.6415 27.0284 30.6255 27.0564 30.616 27.0868C30.6065 27.1172 30.6037 27.1494 30.6078 27.181C30.612 27.2127 30.623 27.2429 30.64 27.2699C30.7292 27.4645 30.7785 27.675 30.7849 27.8889C30.7913 28.1029 30.7547 28.3159 30.6773 28.5154C30.5999 28.7149 30.4833 28.8969 30.3343 29.0505C30.1853 29.2042 30.007 29.3264 29.81 29.4099C29.6636 29.473 29.5085 29.5135 29.35 29.5299C29.1835 29.5401 29.0165 29.5401 28.85 29.5299C28.839 29.8356 28.7506 30.1336 28.5932 30.3959C28.4358 30.6582 28.2145 30.8763 27.95 31.0299C27.6816 31.1873 27.3761 31.2703 27.065 31.2703C26.7539 31.2703 26.4484 31.1873 26.18 31.0299C26.0601 31.3973 25.8252 31.7164 25.51 31.94C25.2301 32.1412 24.8978 32.2569 24.5534 32.2728C24.209 32.2888 23.8673 32.2044 23.57 32.0299C23.5215 31.9964 23.464 31.9784 23.405 31.9784C23.346 31.9784 23.2885 31.9964 23.24 32.0299C22.9039 32.2836 22.5076 32.4456 22.09 32.5H21.94H21.38C20.7799 32.4174 20.2022 32.2168 19.68 31.9099C19.6475 31.8933 19.6115 31.8847 19.575 31.8847C19.5385 31.8847 19.5025 31.8933 19.47 31.9099C19.2863 32.0429 19.0759 32.1346 18.8534 32.1785C18.6309 32.2224 18.4015 32.2175 18.181 32.1643C17.9605 32.1111 17.7542 32.0108 17.5762 31.8703C17.3982 31.7297 17.2528 31.5522 17.15 31.35C17.1273 31.2896 17.0831 31.2398 17.0258 31.2102C16.9685 31.1807 16.9023 31.1734 16.84 31.19C16.467 31.2391 16.088 31.1688 15.7574 30.9891C15.4268 30.8095 15.1616 30.5297 15 30.19C14.9793 30.1272 14.9363 30.0743 14.8792 30.0411C14.8221 30.008 14.7547 29.9969 14.69 30.01C14.35 30.0501 14.0058 29.9866 13.7024 29.8278C13.3991 29.669 13.1508 29.4223 12.99 29.12C12.9183 28.9805 12.8549 28.8369 12.8 28.69C12.5723 28.7088 12.3432 28.6787 12.1281 28.6017C11.913 28.5246 11.717 28.4025 11.5531 28.2433C11.3892 28.0841 11.2612 27.8917 11.1779 27.679C11.0946 27.4662 11.0578 27.2382 11.07 27.01C11.0704 26.9828 11.0642 26.9558 11.0521 26.9314C11.0399 26.907 11.022 26.886 11 26.87C10.59 26.62 10.17 26.3899 9.75 26.1399C9.52 26.5399 9.19 26.5399 8.81 26.4199C7.81 26.0999 6.71999 25.78 5.67999 25.48C5.55672 25.4536 5.44155 25.398 5.34413 25.318C5.24671 25.238 5.16986 25.1357 5.12 25.0199L5.12999 24.83ZM20.57 28.83C20.6269 28.7707 20.6952 28.7235 20.7709 28.6913C20.8465 28.6591 20.9278 28.6425 21.01 28.6425C21.0922 28.6425 21.1735 28.6591 21.2491 28.6913C21.3248 28.7235 21.3931 28.7707 21.45 28.83C22.24 29.49 23.03 30.15 23.83 30.83C24.0152 30.9713 24.231 31.0672 24.46 31.11C24.5578 31.1287 24.6588 31.1199 24.752 31.0847C24.8451 31.0496 24.9267 30.9893 24.9878 30.9107C25.0488 30.832 25.087 30.738 25.0979 30.639C25.1089 30.5401 25.0923 30.4401 25.05 30.35C24.9695 30.1691 24.8539 30.006 24.71 29.87L21.63 27.21C21.17 26.81 20.7 26.42 20.25 26.01C20.1387 25.9119 20.0709 25.7734 20.0615 25.6253C20.0521 25.4771 20.1019 25.3314 20.2 25.22C20.2982 25.1102 20.4344 25.0418 20.5812 25.0288C20.7279 25.0158 20.874 25.0591 20.99 25.1499L21.2 25.33C22.78 26.69 24.36 28.0599 25.95 29.4099C26.2352 29.6555 26.5432 29.8732 26.87 30.0599C26.9744 30.1225 27.098 30.1448 27.2177 30.1227C27.3373 30.1006 27.4448 30.0356 27.52 29.94C27.5954 29.8633 27.6534 29.7713 27.6902 29.6703C27.7269 29.5693 27.7415 29.4615 27.733 29.3544C27.7245 29.2472 27.693 29.1431 27.6407 29.0492C27.5884 28.9553 27.5166 28.8737 27.43 28.8099L24.97 26.7L22.52 24.59C22.4203 24.5267 22.3427 24.434 22.2979 24.3247C22.2531 24.2154 22.2433 24.095 22.27 23.98C22.2899 23.8813 22.3361 23.7898 22.4036 23.7151C22.4712 23.6404 22.5576 23.5854 22.6538 23.5557C22.7501 23.526 22.8525 23.5228 22.9504 23.5464C23.0482 23.57 23.1379 23.6196 23.21 23.69C24 24.35 24.77 25.02 25.55 25.69L28.21 27.97C28.4818 28.2233 28.8384 28.366 29.21 28.37C29.2886 28.3727 29.3667 28.3555 29.437 28.3202C29.5073 28.2849 29.5676 28.2324 29.6124 28.1677C29.6572 28.103 29.685 28.0282 29.6933 27.95C29.7016 27.8717 29.6902 27.7926 29.66 27.72C29.5847 27.5304 29.4686 27.3597 29.32 27.22C28.0533 26.0333 26.7733 24.8466 25.48 23.6599L22.17 20.6599C22.0785 20.5688 21.969 20.4977 21.8484 20.4512C21.7279 20.4047 21.599 20.3838 21.47 20.3899C21.3051 20.3945 21.1411 20.4146 20.98 20.45C20.8825 20.4821 20.7982 20.5454 20.74 20.63C20.45 21.03 20.19 21.47 19.86 21.85C19.5569 22.2084 19.1704 22.487 18.7345 22.6614C18.2987 22.8357 17.8267 22.9005 17.36 22.85C17.1534 22.845 16.9498 22.7984 16.7616 22.713C16.5733 22.6277 16.4041 22.5054 16.2641 22.3533C16.1242 22.2012 16.0162 22.0223 15.9468 21.8276C15.8774 21.6329 15.8479 21.4263 15.86 21.22C15.9134 20.6268 16.1674 20.0694 16.58 19.6399C16.6401 19.5799 16.6877 19.5085 16.72 19.4299C16.85 18.9199 16.96 18.43 17.09 17.88L13.09 17.5499C12.5894 20.2012 11.6713 22.7564 10.37 25.12L11.63 25.85L11.82 25.57C11.9656 25.3616 12.1594 25.1915 12.3849 25.074C12.6103 24.9565 12.8608 24.8952 13.115 24.8952C13.3692 24.8952 13.6197 24.9565 13.8451 25.074C14.0706 25.1915 14.2644 25.3616 14.41 25.57C14.51 25.69 14.58 25.7299 14.73 25.6799C15.1016 25.5685 15.4996 25.5837 15.8616 25.723C16.2237 25.8624 16.5291 26.1181 16.73 26.45L16.8 26.5599C17.0647 26.4473 17.3522 26.3984 17.6393 26.417C17.9264 26.4356 18.2051 26.5214 18.4531 26.6672C18.7011 26.8131 18.9114 27.0151 19.0671 27.257C19.2229 27.4988 19.3198 27.7738 19.35 28.0599C19.6013 28.0901 19.8422 28.178 20.0538 28.3168C20.2655 28.4556 20.4422 28.6416 20.57 28.86V28.83ZM31.57 24.96C31.5329 24.9022 31.4995 24.842 31.47 24.7799C30.1229 22.6111 29.1115 20.2511 28.47 17.7799C28.47 17.6499 28.38 17.62 28.25 17.63C27.56 17.69 26.86 17.7299 26.17 17.7999C25.9311 17.8189 25.6934 17.7516 25.5 17.61C24.9114 17.192 24.2689 16.8556 23.59 16.61C22.8922 16.3852 22.1484 16.3439 21.43 16.49C21.1569 16.5091 20.8893 16.5768 20.64 16.69C20.04 17.03 19.48 17.4399 18.89 17.7899C18.6043 17.9634 18.3644 18.2029 18.1904 18.4883C18.0164 18.7737 17.9134 19.0965 17.89 19.4299C17.89 19.4299 17.89 19.4999 17.89 19.5299C17.8975 19.7201 17.8607 19.9094 17.7826 20.0829C17.7045 20.2564 17.5872 20.4094 17.44 20.5299C17.2167 20.7343 17.0717 21.0101 17.03 21.3099C17.0089 21.3662 17.0018 21.4268 17.0093 21.4865C17.0169 21.5461 17.0388 21.6029 17.0733 21.6521C17.1078 21.7013 17.1537 21.7414 17.2071 21.7689C17.2606 21.7964 17.3199 21.8105 17.38 21.8099C17.6361 21.8521 17.8986 21.8343 18.1467 21.7579C18.3948 21.6816 18.6218 21.5488 18.81 21.37C19.2293 20.9984 19.5694 20.5459 19.81 20.0399C19.8678 19.8946 19.9613 19.7661 20.0819 19.6665C20.2025 19.5669 20.3463 19.4993 20.5 19.47L20.81 19.3899C21.1693 19.2888 21.5481 19.2779 21.9126 19.3582C22.2772 19.4384 22.6163 19.6074 22.9 19.85C24.48 21.29 26.07 22.7099 27.65 24.1399L29.77 26.1399C29.7981 26.1657 29.8313 26.1855 29.8675 26.1975C29.9037 26.2096 29.942 26.2138 29.98 26.21C30.48 25.78 31.01 25.39 31.55 24.99L31.57 24.96ZM6.47 24.57L8.95 25.3099C9.86891 23.7232 10.626 22.0481 11.21 20.3099C11.5526 19.3115 11.8036 18.284 11.96 17.24C11.9756 17.187 11.9696 17.1299 11.9434 17.0812C11.9172 17.0325 11.8729 16.9962 11.82 16.98L10.69 16.48L9.55 15.97L6.47 24.57ZM35.7 24.09C34.33 21.38 32.96 18.69 31.6 15.99L31.36 16.13C30.82 16.48 30.28 16.83 29.73 17.13C29.6713 17.1564 29.6251 17.2043 29.6008 17.2639C29.5766 17.3235 29.5763 17.3901 29.6 17.45C30.0104 18.9865 30.5593 20.4826 31.24 21.9199C31.7589 23.0194 32.3641 24.0761 33.05 25.08C33.0628 25.1079 33.0819 25.1325 33.1058 25.1519C33.1297 25.1712 33.1577 25.1848 33.1877 25.1915C33.2177 25.1983 33.2488 25.1981 33.2787 25.1909C33.3086 25.1837 33.3364 25.1696 33.36 25.1499C33.57 25.0299 33.8 24.94 34.02 24.84L35.7 24.09ZM17.46 27.7C17.3388 27.6975 17.2193 27.7289 17.1151 27.7908C17.0108 27.8526 16.9259 27.9424 16.87 28.0499C16.6 28.4699 16.33 28.8699 16.07 29.2899C16.0105 29.3786 15.9791 29.4832 15.98 29.59C15.9829 29.7233 16.0281 29.8522 16.1089 29.9583C16.1898 30.0643 16.3022 30.1419 16.43 30.1799C16.5632 30.2269 16.7079 30.2299 16.8429 30.1885C16.9779 30.1471 17.096 30.0635 17.18 29.95C17.48 29.54 17.77 29.13 18.04 28.71C18.1088 28.6099 18.1456 28.4914 18.1456 28.37C18.1456 28.2486 18.1088 28.13 18.04 28.0299C17.9839 27.9261 17.8998 27.8402 17.7973 27.7819C17.6947 27.7235 17.5779 27.6951 17.46 27.7ZM14.62 29.0199C14.752 28.9684 14.8739 28.894 14.98 28.7999C15.24 28.4599 15.47 28.08 15.7 27.71C15.7534 27.6269 15.778 27.5284 15.77 27.4299C15.7608 27.311 15.7157 27.1976 15.6407 27.1047C15.5658 27.0119 15.4644 26.944 15.35 26.9099C15.228 26.8688 15.0961 26.8681 14.9737 26.9077C14.8512 26.9473 14.7448 27.0253 14.67 27.13C14.44 27.45 14.22 27.77 14.01 28.13C13.9507 28.2188 13.919 28.3231 13.919 28.4299C13.919 28.5367 13.9507 28.6412 14.01 28.73C14.0827 28.8193 14.1767 28.8888 14.2832 28.9325C14.3897 28.9762 14.5055 28.9925 14.62 28.98V29.0199ZM20.35 31.0199C21.02 31.4799 22.09 31.62 22.48 31.23C21.94 30.78 21.4 30.3299 20.89 29.9199L20.35 31.0199ZM19.69 29.7999C19.7014 29.7042 19.6824 29.6074 19.6357 29.5231C19.5891 29.4388 19.5171 29.3712 19.43 29.33C19.3506 29.2892 19.2597 29.2769 19.1723 29.2951C19.085 29.3133 19.0065 29.3609 18.95 29.4299C18.68 29.7899 18.41 30.1699 18.17 30.5599C18.138 30.6229 18.1224 30.6929 18.1246 30.7634C18.1269 30.834 18.1468 30.9028 18.1827 30.9636C18.2186 31.0244 18.2692 31.0753 18.3299 31.1113C18.3906 31.1474 18.4594 31.1675 18.53 31.1699C18.64 31.1699 18.74 31.17 18.75 30.99C18.7451 30.8914 18.7729 30.7939 18.8289 30.7125C18.8849 30.6312 18.9661 30.5705 19.06 30.5399C19.3 30.4799 19.4 30.3 19.52 30.12C19.5854 30.0217 19.6422 29.9179 19.69 29.8099V29.7999ZM12.23 27.13C12.2203 27.2268 12.2438 27.3239 12.2964 27.4057C12.3491 27.4874 12.4279 27.5488 12.52 27.58C12.607 27.6161 12.7035 27.6218 12.7942 27.5964C12.8849 27.5711 12.9644 27.516 13.02 27.44C13.16 27.25 13.29 27.05 13.43 26.85C13.4682 26.8038 13.4963 26.7502 13.5126 26.6925C13.5288 26.6348 13.5328 26.5743 13.5244 26.515C13.5159 26.4557 13.4951 26.3989 13.4634 26.348C13.4316 26.2972 13.3896 26.2536 13.34 26.22C13.2914 26.1847 13.2361 26.1596 13.1774 26.1465C13.1188 26.1334 13.0581 26.1324 12.999 26.1437C12.94 26.1549 12.8839 26.1782 12.8342 26.2119C12.7845 26.2457 12.7422 26.2893 12.71 26.34C12.57 26.5266 12.44 26.7166 12.32 26.9099C12.2817 26.9831 12.2515 27.0602 12.23 27.1399V27.13Z" fill="white"/>
</g>
<defs>
<clipPath id="clip0_42_75">
<rect width="42.16" height="42.16" fill="white"/>
</clipPath>
</defs>
</svg>
