<svg width="43" height="43" viewBox="0 0 43 43" fill="none" xmlns="http://www.w3.org/2000/svg">
<g clip-path="url(#clip0_42_66)">
<path d="M35.78 0H6.38C2.85642 0 0 2.85642 0 6.38V35.78C0 39.3036 2.85642 42.16 6.38 42.16H35.78C39.3036 42.16 42.16 39.3036 42.16 35.78V6.38C42.16 2.85642 39.3036 0 35.78 0Z" fill="#0076C0"/>
<path d="M21.45 32.9901C21.2123 32.9937 20.9748 32.9769 20.74 32.9401L13.52 31.9401C12.755 31.8248 12.0272 31.5336 11.3939 31.0893C10.7605 30.6451 10.2389 30.0601 9.86999 29.3801L8.7 27.16C8.65215 27.0761 8.62143 26.9835 8.60961 26.8877C8.59779 26.7918 8.60511 26.6946 8.63116 26.6016C8.6572 26.5085 8.70143 26.4216 8.76131 26.3458C8.82119 26.27 8.89554 26.2069 8.98 26.16L15.32 22.3601C15.9644 21.9731 16.6928 21.7473 17.4431 21.702C18.1935 21.6568 18.9437 21.7933 19.63 22.1001L23.45 23.8C23.7993 23.9548 24.1133 24.1792 24.3729 24.4595C24.6326 24.7397 24.8323 25.07 24.96 25.43L30.23 23.6301C30.8368 23.3974 31.5104 23.4101 32.108 23.6656C32.7056 23.9212 33.1801 24.3994 33.4311 24.9989C33.6821 25.5984 33.6897 26.272 33.4524 26.8771C33.2152 27.4821 32.7516 27.9711 32.16 28.2401L23.69 32.4701C22.9939 32.8151 22.2269 32.9932 21.45 32.9901ZM10.36 27.0701L11.2 28.65C11.451 29.1265 11.811 29.5371 12.2506 29.8481C12.6902 30.1592 13.1971 30.362 13.73 30.4401L20.95 31.4401C21.6585 31.5397 22.3806 31.4212 23.02 31.1001L31.49 26.8701C31.7264 26.7538 31.9074 26.5487 31.9936 26.2997C32.0797 26.0506 32.064 25.7776 31.95 25.54C31.8449 25.3147 31.6597 25.1367 31.4304 25.0405C31.2012 24.9444 30.9443 24.937 30.71 25.02L25.07 26.9501C24.9367 27.5888 24.5876 28.1621 24.0813 28.5737C23.575 28.9853 22.9425 29.21 22.29 29.2101H18.61C18.4111 29.2101 18.2203 29.131 18.0797 28.9903C17.939 28.8497 17.86 28.659 17.86 28.4601C17.86 28.2612 17.939 28.0703 18.0797 27.9297C18.2203 27.789 18.4111 27.7101 18.61 27.7101H22.29C22.5999 27.7144 22.9016 27.6111 23.1439 27.418C23.3862 27.2248 23.5541 26.9536 23.6189 26.6506C23.6838 26.3476 23.6416 26.0315 23.4996 25.7561C23.3575 25.4807 23.1245 25.263 22.84 25.1401L19.02 23.4401C18.5541 23.2301 18.0443 23.1359 17.5341 23.1655C17.024 23.1951 16.5285 23.3477 16.09 23.6101L10.36 27.0701Z" fill="white"/>
<path d="M20.74 15.7301C20.1735 15.732 19.6192 15.5657 19.1473 15.2522C18.6755 14.9387 18.3074 14.4922 18.0897 13.9692C17.872 13.4462 17.8145 12.8703 17.9245 12.3145C18.0346 11.7588 18.3072 11.2483 18.7077 10.8477C19.1083 10.4472 19.6188 10.1746 20.1745 10.0645C20.7302 9.9545 21.3061 10.012 21.8291 10.2297C22.3521 10.4474 22.7987 10.8155 23.1122 11.2873C23.4257 11.7592 23.592 12.3136 23.59 12.8801C23.5874 13.6351 23.2863 14.3585 22.7524 14.8924C22.2185 15.4263 21.4951 15.7274 20.74 15.7301ZM20.74 11.52C20.4706 11.518 20.2067 11.5961 19.9818 11.7443C19.7568 11.8926 19.5809 12.1043 19.4764 12.3526C19.372 12.601 19.3436 12.8747 19.395 13.1391C19.4463 13.4036 19.575 13.6469 19.7648 13.8381C19.9546 14.0293 20.1969 14.1598 20.461 14.2131C20.7251 14.2664 20.999 14.24 21.2481 14.1374C21.4972 14.0348 21.7102 13.8605 21.8601 13.6367C22.01 13.4128 22.09 13.1495 22.09 12.8801C22.09 12.5211 21.9481 12.1766 21.6953 11.9218C21.4424 11.6671 21.099 11.5226 20.74 11.52Z" fill="white"/>
<path d="M17.92 20.4C17.4836 20.4017 17.0566 20.2737 16.6932 20.032C16.3298 19.7904 16.0464 19.4462 15.8792 19.0432C15.712 18.6401 15.6684 18.1963 15.754 17.7684C15.8396 17.3405 16.0505 16.9478 16.36 16.6401L18.55 14.45C18.6905 14.3093 18.8811 14.2302 19.08 14.23H22.4C22.5988 14.2302 22.7895 14.3093 22.93 14.45L25.11 16.6401C25.4219 16.9477 25.6343 17.3417 25.7199 17.7713C25.8055 18.2009 25.7602 18.6463 25.59 19.05C25.4194 19.454 25.1324 19.7982 24.7655 20.0386C24.3987 20.279 23.9686 20.4048 23.53 20.4H20.73H17.95H17.92ZM20.73 18.8701H23.55C23.6891 18.8701 23.825 18.8286 23.9404 18.751C24.0559 18.6735 24.1456 18.5634 24.1982 18.4346C24.2507 18.3059 24.2638 18.1644 24.2356 18.0283C24.2074 17.8921 24.1393 17.7673 24.04 17.67L22.04 15.67H19.34L17.34 17.67C17.2398 17.7679 17.1717 17.8941 17.1449 18.0317C17.1181 18.1692 17.1339 18.3116 17.19 18.44C17.2502 18.5651 17.3436 18.6714 17.4599 18.7473C17.5763 18.8231 17.7112 18.8655 17.85 18.8701H20.73Z" fill="white"/>
<path d="M27.3 14.8901C26.7339 14.8921 26.18 14.726 25.7083 14.4129C25.2367 14.0999 24.8686 13.6539 24.6506 13.1314C24.4326 12.609 24.3745 12.0337 24.4837 11.4782C24.593 10.9228 24.8646 10.4123 25.2641 10.0113C25.6637 9.61035 26.1733 9.33697 26.7284 9.22581C27.2834 9.11464 27.859 9.17065 28.3821 9.38682C28.9053 9.60299 29.3526 9.9695 29.6673 10.44C29.982 10.9106 30.15 11.4639 30.15 12.03C30.15 12.7868 29.8501 13.5127 29.3159 14.0488C28.7817 14.5849 28.0568 14.8875 27.3 14.8901ZM27.3 10.68C27.0302 10.6781 26.7659 10.7565 26.5407 10.9051C26.3155 11.0538 26.1396 11.2661 26.0355 11.515C25.9313 11.7639 25.9035 12.0382 25.9557 12.303C26.0078 12.5677 26.1376 12.8109 26.3284 13.0017C26.5192 13.1925 26.7624 13.3222 27.0272 13.3744C27.2919 13.4265 27.5662 13.3987 27.8151 13.2945C28.064 13.1904 28.2763 13.0146 28.425 12.7894C28.5736 12.5642 28.652 12.2998 28.65 12.03C28.65 11.8527 28.6151 11.6772 28.5472 11.5134C28.4794 11.3496 28.38 11.2008 28.2546 11.0754C28.1293 10.9501 27.9804 10.8507 27.8166 10.7828C27.6528 10.715 27.4773 10.68 27.3 10.68Z" fill="white"/>
<path d="M30.11 19.55H26.92C26.7211 19.55 26.5304 19.471 26.3897 19.3304C26.2491 19.1897 26.17 18.9989 26.17 18.8C26.1821 18.6033 26.2663 18.4181 26.4066 18.2797C26.5468 18.1413 26.7332 18.0595 26.93 18.05H30.13C30.2694 18.0536 30.4065 18.0142 30.5227 17.9373C30.639 17.8604 30.7288 17.7497 30.78 17.6201C30.8362 17.4917 30.8519 17.3492 30.8251 17.2116C30.7983 17.0741 30.7303 16.948 30.63 16.85L28.63 14.85H25.94L25.31 15.47C25.2411 15.5408 25.1587 15.597 25.0676 15.6354C24.9766 15.6738 24.8788 15.6935 24.78 15.6935C24.6812 15.6935 24.5835 15.6738 24.4924 15.6354C24.4014 15.597 24.319 15.5408 24.25 15.47C24.1096 15.3294 24.0307 15.1388 24.0307 14.94C24.0307 14.7413 24.1096 14.5506 24.25 14.41L25.1 13.57C25.2406 13.4293 25.4312 13.3502 25.63 13.35H28.94C29.1415 13.3518 29.3347 13.4305 29.48 13.57L31.66 15.7501C31.9695 16.0578 32.1804 16.4506 32.266 16.8785C32.3516 17.3064 32.3081 17.7501 32.1408 18.1531C31.9736 18.5562 31.6903 18.9004 31.3269 19.142C30.9635 19.3836 30.5364 19.5118 30.1 19.5101L30.11 19.55Z" fill="white"/>
<path d="M14.18 14.8901C13.6144 14.8901 13.0614 14.7223 12.5911 14.408C12.1208 14.0938 11.7542 13.647 11.5377 13.1245C11.3212 12.6019 11.2646 12.0269 11.375 11.4721C11.4853 10.9173 11.7577 10.4077 12.1577 10.0078C12.5577 9.60777 13.0673 9.33527 13.6221 9.22491C14.1768 9.11456 14.7519 9.17129 15.2745 9.38776C15.7971 9.60422 16.2438 9.97078 16.558 10.4411C16.8723 10.9114 17.04 11.4643 17.04 12.03C17.04 12.7885 16.7387 13.516 16.2024 14.0523C15.666 14.5887 14.9385 14.8901 14.18 14.8901ZM14.18 10.68C13.8407 10.7092 13.5248 10.8645 13.2945 11.1154C13.0643 11.3663 12.9365 11.6944 12.9365 12.035C12.9365 12.3755 13.0643 12.7036 13.2945 12.9545C13.5248 13.2054 13.8407 13.3609 14.18 13.3901C14.3677 13.4062 14.5568 13.3831 14.7351 13.3223C14.9135 13.2616 15.0773 13.1644 15.2161 13.037C15.3549 12.9097 15.4657 12.7548 15.5416 12.5823C15.6174 12.4098 15.6565 12.2234 15.6565 12.035C15.6565 11.8466 15.6174 11.6602 15.5416 11.4877C15.4657 11.3152 15.3549 11.1604 15.2161 11.033C15.0773 10.9056 14.9135 10.8085 14.7351 10.7477C14.5568 10.687 14.3677 10.6639 14.18 10.68Z" fill="white"/>
<path d="M11.36 19.55C10.9322 19.5464 10.5148 19.4176 10.1594 19.1795C9.80397 18.9414 9.52606 18.6043 9.36002 18.21C9.1917 17.8044 9.14748 17.358 9.23292 16.9272C9.31836 16.4964 9.52964 16.1006 9.84003 15.79L12.02 13.61C12.1605 13.4694 12.3512 13.3903 12.55 13.3901H15.87C16.0689 13.3903 16.2595 13.4694 16.4 13.61L17.25 14.45C17.3905 14.5906 17.4694 14.7813 17.4694 14.98C17.4694 15.1788 17.3905 15.3694 17.25 15.5101C17.1811 15.5808 17.0987 15.637 17.0076 15.6754C16.9166 15.7138 16.8188 15.7336 16.72 15.7336C16.6212 15.7336 16.5234 15.7138 16.4324 15.6754C16.3414 15.637 16.259 15.5808 16.19 15.5101L15.56 14.8901H12.86L10.86 16.8901C10.7607 16.9874 10.6926 17.112 10.6644 17.2482C10.6363 17.3844 10.6493 17.5259 10.7019 17.6546C10.7545 17.7833 10.8442 17.8936 10.9596 17.9711C11.075 18.0487 11.211 18.09 11.35 18.09H14.55C14.7466 18.0975 14.9331 18.1789 15.0722 18.3179C15.2112 18.457 15.2926 18.6435 15.3 18.84C15.3014 18.938 15.2832 19.0353 15.2466 19.1263C15.21 19.2172 15.1557 19.3 15.0869 19.3698C15.018 19.4396 14.936 19.495 14.8456 19.5328C14.7551 19.5706 14.6581 19.59 14.56 19.59H11.37L11.36 19.55Z" fill="white"/>
</g>
<defs>
<clipPath id="clip0_42_66">
<rect width="42.16" height="42.16" fill="white"/>
</clipPath>
</defs>
</svg>
